<?xml version="1.0" standalone="no"?><!DOCTYPE svg PUBLIC "-//W3C//DTD SVG 1.1//EN" "http://www.w3.org/Graphics/SVG/1.1/DTD/svg11.dtd"><svg t="1613707168783" class="icon" viewBox="0 0 1024 1024" version="1.1" xmlns="http://www.w3.org/2000/svg" p-id="5594" xmlns:xlink="http://www.w3.org/1999/xlink" width="200" height="200"><defs><style type="text/css"></style></defs><path d="M624.4352 490.0864c-36.1472-7.2704-80.5888 3.3792-112.4352 40.5504-31.8464-38.1952-76.0832-49.664-111.8208-41.984-56.5248 11.776-92.9792 63.7952-92.9792 132.4032 0 103.424 172.3392 208.4864 191.8976 220.16l13.1072 7.7824 13.1072-7.7824c19.5584-11.6736 191.488-117.3504 191.488-220.8768C716.8 552.8576 680.5504 501.6576 624.4352 490.0864zM512.1024 789.1968C447.7952 748.3392 358.4 673.5872 358.4 621.1584c0-52.736 26.9312-77.0048 52.224-82.3296 3.8912-0.8192 7.7824-1.2288 11.6736-1.2288 26.8288 0 52.0192 19.2512 66.1504 51.8144l23.552 54.0672 23.4496-54.1696c17.92-41.472 52.4288-54.8864 78.6432-49.0496 24.8832 5.12 51.6096 28.8768 51.6096 80.1792C665.6 672.9728 576.4096 748.1344 512.1024 789.1968z" p-id="5595"></path><path d="M921.6 204.8 747.6224 204.8c18.3296-13.5168 34.304-27.8528 46.2848-42.2912 34.7136-41.984 26.112-69.8368 18.0224-82.6368C781.7216 32.256 685.568 49.4592 606.208 91.0336c-37.7856 19.7632-71.8848 45.3632-94.208 71.7824-22.4256-26.4192-56.4224-52.0192-94.208-71.7824l0 0C338.432 49.5616 242.3808 32.3584 212.0704 79.872c-8.192 12.8-16.6912 40.6528 18.0224 82.6368 11.9808 14.4384 27.9552 28.7744 46.2848 42.2912L102.4 204.8c-28.16 0-51.2 23.04-51.2 51.2l0 102.4c0 28.16 23.04 51.2 51.2 51.2l51.2 0 0 454.0416C153.6 923.648 197.3248 972.8 250.6752 972.8l522.752 0c53.3504 0 96.9728-49.152 96.9728-109.2608L870.4 409.6l51.2 0c28.16 0 51.2-23.04 51.2-51.2L972.8 256C972.8 227.84 949.76 204.8 921.6 204.8zM819.2 863.5392c0 31.4368-20.992 58.0608-45.7728 58.0608L250.6752 921.6c-24.7808 0-45.7728-26.624-45.7728-58.0608L204.9024 409.6l45.7728 0 522.752 0L819.2 409.6 819.2 863.5392zM629.3504 127.0784C703.5904 88.2688 763.904 87.9616 771.9936 100.6592c3.1744 5.12-0.1024 18.7392-14.9504 36.7616-17.8176 21.504-47.5136 44.1344-81.7152 61.952-3.7888 1.9456-7.3728 3.4816-11.0592 5.3248l-126.976 0C548.5568 184.1152 578.3552 153.8048 629.3504 127.0784zM348.672 199.4752c-34.2016-17.92-63.8976-40.448-81.7152-62.0544-14.9504-18.0224-18.2272-31.744-14.9504-36.7616 2.9696-4.608 12.5952-7.4752 27.3408-7.4752 26.112 0 67.8912 9.1136 115.4048 33.8944 50.9952 26.7264 80.6912 56.9344 92.0576 77.6192L359.7312 204.6976C356.0448 202.9568 352.4608 201.4208 348.672 199.4752zM921.6 358.4 102.4 358.4 102.4 256l819.2 0L921.6 358.4z" p-id="5596"></path></svg>